PathFileType	4	(X/Y/Z)	/Users/itak/Documents/Research/Walk-IL/dataset/trc/00073_00006.trc
DataRate	CameraRate	NumFrames	NumMarkers	Units	OrigDataRate	OrigDataStartFrame	OrigNumFrames
100.000000	100.000000	4	53	mm	100.000000	459	735
Frame#	Time	RPSI			LPSI			L3			STRN			T10			C7			CLAV			RBAK			LBAK			LSHO			LUPA			LAEL			LAOL			LWTS			LWPS			LFRA			LIFD			LHPS			LHTS			RSHO			RUPA			RAEL			RWTS			RWPS			RFRA			RIFD			RHTS			RHPS			RBHD			LFHD			RFHD			LBHD			LHIP			RHIP			RASI			LASI			LKNE			LTHI			LANK			LTIP			LTOE			LMT1			LMT5			LHEE			RKNE			RTHI			RANK			RTIP			RTOE			RMT1			RMT5			RHEE			RAOL			
		X1	Y1	Z1	X2	Y2	Z2	X3	Y3	Z3	X4	Y4	Z4	X5	Y5	Z5	X6	Y6	Z6	X7	Y7	Z7	X8	Y8	Z8	X9	Y9	Z9	X10	Y10	Z10	X11	Y11	Z11	X12	Y12	Z12	X13	Y13	Z13	X14	Y14	Z14	X15	Y15	Z15	X16	Y16	Z16	X17	Y17	Z17	X18	Y18	Z18	X19	Y19	Z19	X20	Y20	Z20	X21	Y21	Z21	X22	Y22	Z22	X23	Y23	Z23	X24	Y24	Z24	X25	Y25	Z25	X26	Y26	Z26	X27	Y27	Z27	X28	Y28	Z28	X29	Y29	Z29	X30	Y30	Z30	X31	Y31	Z31	X32	Y32	Z32	X33	Y33	Z33	X34	Y34	Z34	X35	Y35	Z35	X36	Y36	Z36	X37	Y37	Z37	X38	Y38	Z38	X39	Y39	Z39	X40	Y40	Z40	X41	Y41	Z41	X42	Y42	Z42	X43	Y43	Z43	X44	Y44	Z44	X45	Y45	Z45	X46	Y46	Z46	X47	Y47	Z47	X48	Y48	Z48	X49	Y49	Z49	X50	Y50	Z50	X51	Y51	Z51	X52	Y52	Z52	X53	Y53	Z53	

460	4.59	346.8109741210938	994.2720336914062	-288.2325439453125	445.5788879394531	982.5631103515625	-432.7479248046875	393.9110412597656	1051.447875976562	-361.1136169433594	603.510498046875	1243.267700195312	-210.8894195556641	382.6331176757812	1185.1904296875	-361.6926574707031	432.0577392578125	1450.363037109375	-319.3966979980469	580.997314453125	1358.458129882812	-225.4356842041016	337.2662963867188	1312.119384765625	-297.35986328125	462.4410400390625	1415.985961914062	-415.3768920898438	585.6071166992188	1421.063354492188	-427.1959838867188	594.93115234375	1304.833129882812	-517.3204345703125	605.9635620117188	1097.015991210938	-563.6783447265625	518.4612426757812	1076.131958007812	-505.2294616699219	672.1527709960938	850.1494750976562	-503.3772277832031	634.009765625	846.3336791992188	-578.1958618164062	625.8662109375	988.6443481445312	-577.93359375	672.7607421875	662.9698486328125	-498.9410095214844	665.0111083984375	765.5463256835938	-573.570068359375	695.5233154296875	768.0039672851562	-508.5865783691406	389.7342529296875	1409.559692382812	-141.8214111328125	341.8323364257812	1343.039306640625	-98.20279693603516	282.0602722167969	1082.467529296875	-78.20020294189453	478.8712463378906	879.2371826171875	-5.256596565246582	402.0912170410156	838.7211303710938	-0.6152070164680481	300.6151428222656	999.5402221679688	-54.48592758178711	548.671875	706.0938720703125	-15.30985450744629	529.218994140625	788.4310302734375	14.98619747161865	456.2373352050781	762.9774169921875	26.50020980834961	557.3003540039062	1638.6787109375	-332.3299865722656	495.165771484375	1641.958984375	-125.2822799682617	612.4608764648438	1665.209838867188	-164.3110809326172	431.6838989257812	1606.0576171875	-281.1131896972656	588.9884643554688	927.5323486328125	-440.5962829589844	349.8451843261719	923.0485229492188	-187.8928833007812	460.273681640625	936.6112060546875	-125.0576629638672	637.5761108398438	938.9286499023438	-327.6266784667969	740.7290649414062	517.3336791992188	-256.8392333984375	707.1414794921875	629.306884765625	-349.1628112792969	868.6203002929688	58.31846237182617	-208.4754333496094	810.0457153320312	284.8927917480469	-249.3251342773438	937.9950561523438	153.1333770751953	-44.88682556152344	873.9818725585938	127.2370147705078	-56.96925735473633	943.7326049804688	94.48915863037109	-138.3561859130859	779.3355102539062	32.84353637695312	-214.9864196777344	423.9032897949219	481.3163146972656	-254.4957275390625	415.1762084960938	739.281494140625	-165.0983276367188	291.725341796875	43.90090179443359	-429.8867797851562	397.0843200683594	360.1494445800781	-295.1433715820312	510.1260070800781	33.21154403686523	-409.0646057128906	461.2284240722656	42.13554000854492	-460.7632446289062	405.8559265136719	40.74555587768555	-379.4233093261719	263.5401306152344	59.05161285400391	-495.4381713867188	355.1368408203125	1056.04541015625	-142.2204895019531	
461	4.600000000000001	354.6134643554688	993.3401489257812	-284.6595458984375	455.2589721679688	981.5103759765625	-427.887939453125	402.5426330566406	1050.392822265625	-356.8459777832031	610.6737670898438	1242.097778320312	-205.0549621582031	390.7129516601562	1184.056518554688	-357.8399353027344	440.3438720703125	1449.274536132812	-315.208251953125	588.4141845703125	1357.2822265625	-219.9295196533203	345.1192932128906	1311.133544921875	-293.9471435546875	471.6006469726562	1414.731567382812	-410.8446960449219	594.7457885742188	1419.758544921875	-421.7143249511719	604.4415283203125	1303.541625976562	-511.8733215332031	615.5421752929688	1095.912353515625	-558.7080078125	527.4672241210938	1074.973510742188	-500.8008422851562	681.0748291015625	848.849365234375	-498.4264221191406	643.4344482421875	845.2548828125	-573.5302734375	635.4249267578125	987.545654296875	-573.0228881835938	681.3340454101562	661.5927734375	-494.5257568359375	674.2596435546875	764.4517822265625	-568.9081420898438	704.4273071289062	766.7196044921875	-503.6987609863281	396.4487915039062	1408.614379882812	-137.9620819091797	348.1315307617188	1342.111450195312	-94.64894866943359	288.2299194335938	1081.507690429688	-74.9219970703125	484.6462707519531	878.3507080078125	-0.6062257289886475	407.7735900878906	837.796875	3.557201862335205	306.5904846191406	998.583740234375	-51.06016540527344	554.4760131835938	705.2128295898438	-10.03428840637207	534.7872924804688	787.5792236328125	20.01878547668457	461.7682495117188	762.123046875	31.13086318969727	566.0512084960938	1637.608764648438	-326.8458862304688	501.39111328125	1640.845947265625	-120.6207046508789	619.17236328125	1664.07568359375	-158.1662292480469	439.9967956542969	1604.955810546875	-277.1919250488281	598.4725341796875	926.2637939453125	-434.0195922851562	356.4801330566406	922.308837890625	-184.2293853759766	466.0556945800781	935.63720703125	-120.03955078125	645.8880615234375	937.7702026367188	-320.5728759765625	747.6710205078125	516.0259399414062	-248.3775024414062	714.6532592773438	627.8423461914062	-340.9873046875	872.1356811523438	56.50943374633789	-197.8043518066406	815.2658081054688	283.1332397460938	-239.4730529785156	941.1544799804688	150.5991973876953	-33.78201293945312	877.1224975585938	125.1347274780273	-46.20845413208008	947.0011596679688	92.09669494628906	-127.2902526855469	782.7627563476562	31.55612754821777	-204.7628479003906	429.276123046875	480.599609375	-250.6943359375	420.5890808105469	738.4527587890625	-160.9729919433594	292.2102355957031	45.66202163696289	-429.8009643554688	401.3297119140625	359.6636047363281	-292.0821533203125	510.2063293457031	33.11085891723633	-408.9996643066406	461.5232543945312	42.44662857055664	-460.4137878417969	406.1668090820312	40.96280288696289	-379.2025756835938	264.306396484375	61.98907089233398	-495.2580261230469	361.6619873046875	1055.023803710938	-138.499755859375	
462	4.61	362.4939575195312	992.5762329101562	-280.8338317871094	464.9823608398438	980.6168823242188	-422.7902221679688	411.2489318847656	1049.434814453125	-352.3455505371094	617.9343872070312	1241.130981445312	-199.1110382080078	398.9892272949219	1183.052734375	-353.7863464355469	448.6967468261719	1448.317504882812	-310.9576110839844	595.8935546875	1356.295532226562	-214.3337860107422	353.1398315429688	1310.267578125	-290.4129333496094	480.7745361328125	1413.61474609375	-406.2431335449219	603.9419555664062	1418.619995117188	-416.1448669433594	614.0401611328125	1302.393920898438	-506.3057250976562	625.225341796875	1094.941040039062	-553.5333251953125	536.6238403320312	1073.950439453125	-496.1500244140625	690.1388549804688	847.6804809570312	-493.2973022460938	652.9562377929688	844.316650390625	-568.66796875	645.1046752929688	986.58349609375	-567.9085083007812	690.0574951171875	660.3704833984375	-489.9309997558594	683.6181030273438	763.4895629882812	-564.0548706054688	713.441162109375	765.5584716796875	-498.6519165039062	403.2030639648438	1407.84814453125	-134.0553741455078	354.4915466308594	1341.369018554688	-91.03963470458984	294.4589233398438	1080.744873046875	-71.68430328369141	490.2738647460938	877.4903564453125	4.043441295623779	413.29248046875	836.9703369140625	7.688318729400635	312.5488586425781	997.8160400390625	-47.69258117675781	560.0213623046875	704.3063354492188	-4.742915630340576	540.1362915039062	786.7047119140625	25.06604385375977	467.0538024902344	761.3162841796875	35.72704696655273	574.820068359375	1636.692260742188	-321.2363586425781	507.6479797363281	1639.894775390625	-115.8911743164062	625.899169921875	1663.093383789062	-151.9367828369141	448.3267211914062	1604.0400390625	-273.1956176757812	607.9172973632812	925.13818359375	-427.2406005859375	363.2493896484375	921.7111206054688	-180.3208618164062	472.0249938964844	934.7968139648438	-114.8270721435547	654.2498168945312	936.773193359375	-313.38134765625	754.4517211914062	514.829833984375	-239.3747406005859	722.2136840820312	626.6345825195312	-332.2489318847656	874.3976440429688	54.24990081787109	-188.8107757568359	819.8466186523438	281.1220703125	-230.0546722412109	942.937255859375	146.4758911132812	-23.69726943969727	878.8793334960938	121.6050338745117	-36.7216796875	948.9588012695312	88.6934814453125	-117.5994033813477	784.9540405273438	30.04700660705566	-196.4884185791016	434.7893981933594	479.9815063476562	-246.6922760009766	426.184814453125	737.72900390625	-156.6330261230469	292.7491149902344	47.66481018066406	-429.556396484375	405.691162109375	359.2919616699219	-288.7873229980469	510.2706604003906	33.03252410888672	-408.9475402832031	461.7953796386719	42.83040618896484	-460.0347290039062	406.5065002441406	41.20686721801758	-378.8917236328125	265.1236572265625	65.24837493896484	-494.8958129882812	368.192626953125	1054.207763671875	-134.8155670166016	
463	4.62	370.4693298339844	991.9826049804688	-276.7209777832031	474.7491760253906	979.8775634765625	-417.4431762695312	420.0605163574219	1048.559936523438	-347.6109924316406	625.3005981445312	1240.38916015625	-193.0524597167969	407.5306091308594	1182.178588867188	-349.5157470703125	457.1111145019531	1447.497192382812	-306.6517944335938	603.4373779296875	1355.518188476562	-208.6488800048828	361.3101806640625	1309.518432617188	-286.7613525390625	489.978271484375	1412.638061523438	-401.5749816894531	613.2007446289062	1417.6611328125	-410.4889831542969	623.7496337890625	1301.405395507812	-500.6136474609375	635.0243530273438	1094.11181640625	-548.1389770507812	545.9544067382812	1073.0732421875	-491.2652282714844	699.3336181640625	846.6428833007812	-487.9723815917969	662.5811767578125	843.5324096679688	-563.59765625	654.9139404296875	985.7653198242188	-562.5740356445312	698.9284057617188	659.3120727539062	-485.1513366699219	693.086181640625	762.6620483398438	-558.9984741210938	722.559814453125	764.5250244140625	-493.434326171875	409.9819030761719	1407.272827148438	-130.1143493652344	360.9087829589844	1340.824340820312	-87.38835906982422	300.7409057617188	1080.195068359375	-68.50473785400391	495.720458984375	876.668701171875	8.681950569152832	418.6300354003906	836.2607421875	11.76055908203125	318.4864501953125	997.2568969726562	-44.39963150024414	565.2855224609375	703.3932495117188	0.5536314845085144	545.2431030273438	785.8239135742188	30.12296867370605	472.07470703125	760.5717163085938	40.26967239379883	583.607421875	1635.949462890625	-315.5069885253906	513.933349609375	1639.116821289062	-111.0907897949219	632.635498046875	1662.269897460938	-145.6215667724609	456.671630859375	1603.33203125	-269.1199645996094	617.3560180664062	924.1528930664062	-420.2452697753906	370.1726379394531	921.24951171875	-176.1317291259766	478.2096252441406	934.0949096679688	-109.4067459106445	662.6885986328125	935.9423828125	-306.0446166992188	760.9855346679688	513.7197875976562	-229.8994445800781	729.7913818359375	625.6473999023438	-323.0015563964844	875.6505126953125	51.68889617919922	-181.3252410888672	823.8538818359375	278.9299926757812	-221.0465240478516	943.4891967773438	140.9485626220703	-14.48640632629395	879.4182739257812	116.8127975463867	-28.37289047241211	949.8095092773438	84.466796875	-109.1114730834961	786.1773681640625	28.44884300231934	-190.0072174072266	440.465576171875	479.4515380859375	-242.4781188964844	431.9895324707031	737.1027221679688	-152.0571746826172	293.34814453125	49.92557144165039	-429.1699829101562	410.1654357910156	359.0389099121094	-285.2585754394531	510.3198547363281	32.97553253173828	-408.9090881347656	462.0647888183594	43.29276275634766	-459.6367492675781	406.8824768066406	41.48185729980469	-378.4914245605469	266.0259094238281	68.84642791748047	-494.3594360351562	374.7303161621094	1053.616943359375	-131.1755218505859	
